<svg xmlns="http://www.w3.org/2000/svg" width="28" height="41" viewBox="0 0 28 41" fill="none">
  <path fill-rule="evenodd" clip-rule="evenodd" d="M12.7968 1.20891L0.733562 19.8665C0.590394 19.9806 0.492534 20.1359 0.449793 20.3054L0.0784836 20.8796L13.5785 28.4722L27.0785 20.8796L14.3601 1.20891C14.3229 1.12015 14.2701 1.03915 14.2051 0.969117L13.5785 0L12.9519 0.969117C12.8869 1.03915 12.8341 1.12015 12.7968 1.20891ZM12.7347 4.38742L3.60168 18.513L12.7347 14.2877V4.38742ZM12.7347 16.1041L2.98024 20.6168L12.7347 26.1029V16.1041ZM14.4222 26.1029V16.123L24.014 20.7083L14.4222 26.1029ZM14.4222 14.2953V4.38742L23.6942 18.7278L14.4222 14.2953ZM13.4801 30.6947L0.0784836 23.1574L13.5785 41L27.0785 23.1574L13.6769 30.6947C13.6446 30.691 13.6118 30.6891 13.5785 30.6891C13.5452 30.6891 13.5124 30.691 13.4801 30.6947ZM12.7347 32.1703L6.22026 28.5064L12.7347 37.1164V32.1703ZM14.4222 37.1164L20.9367 28.5064L14.4222 32.1703V37.1164Z" fill="#EF52D1"/>
</svg>